# xmcd
#
# Track frame offsets: 
#        150
#        15490
#        33944
#        52692
#        69061
#        82864
#        101822
#        119909
#        137522
#        152555
#
# Disc length: 2236 seconds
#
# Revision: 0
# Processed by: cddbd v1.5.2PL0 Copyright (c) Steve Scherf et al.
# Submitted via: ExactAudioCopyFreeDBPlugin 1.0
#
DISCID=6e08ba0a
DTITLE=Anthony Gomes - Long Way Home
DYEAR=2006
DGENRE=Blues
TTITLE0=Bring It
TTITLE1=Without You
TTITLE2=Hard Line to Ride
TTITLE3=Purple Whiskey Sack
TTITLE4=Long Way Home
TTITLE5=Monday Salvation
TTITLE6=Mississippi Hurricane
TTITLE7=Morning Star
TTITLE8=Soul Power
TTITLE9=Tilt-A-Whirl
EXTD=
EXTT0=
EXTT1=
EXTT2=
EXTT3=
EXTT4=
EXTT5=
EXTT6=
EXTT7=
EXTT8=
EXTT9=
PLAYORDER=
